<?xml version="1.0" standalone="no"?>
<!DOCTYPE svg PUBLIC "-//W3C//DTD SVG 20010904//EN"
 "http://www.w3.org/TR/2001/REC-SVG-20010904/DTD/svg10.dtd">
<svg version="1.0" xmlns="http://www.w3.org/2000/svg"
 width="728.000000pt" height="90.000000pt" viewBox="0 0 728.000000 90.000000"
 preserveAspectRatio="xMidYMid meet">

<g transform="translate(0.000000,90.000000) scale(0.100000,-0.100000)"
fill="#000000" stroke="none">
<path d="M0 485 l0 -415 1158 1 c636 1 1195 4 1242 8 47 5 77 9 68 9 -19 2
-24 27 -8 37 11 7 4 25 -10 25 -5 0 -7 -6 -4 -14 7 -18 -12 -30 -22 -15 -4 8
-3 9 4 5 7 -4 12 -3 12 3 0 5 -8 15 -17 20 -15 8 -15 10 -3 11 18 0 24 36 8
46 -7 5 -8 2 -3 -5 6 -10 3 -11 -14 -2 -11 7 -21 14 -21 17 0 3 4 3 9 -1 6 -3
9 4 8 15 -2 24 -13 26 -25 4 -8 -15 -10 -15 -15 0 -4 10 -3 15 3 11 6 -3 10 5
10 19 0 14 -6 26 -12 26 -9 0 -8 4 2 10 8 5 11 10 6 10 -5 0 -2 7 5 17 10 12
11 17 2 20 -7 2 -9 11 -6 19 7 18 -16 96 -32 106 -6 5 -6 8 3 8 6 0 12 9 12
21 0 11 3 18 8 15 4 -2 7 18 6 45 0 28 3 52 8 55 4 3 1 19 -7 35 -9 16 -20 27
-25 24 -6 -4 -10 38 -10 109 l0 116 -1170 0 -1170 0 0 -415z m284 239 c17 -17
22 -64 7 -64 -5 0 -11 10 -13 23 -2 14 -11 23 -26 25 -22 3 -23 2 -20 -85 3
-80 5 -88 23 -88 14 0 21 8 23 28 4 36 22 35 22 -1 0 -35 -16 -52 -52 -52 -38
0 -48 24 -48 116 0 58 4 82 17 96 20 22 46 23 67 2z m112 -47 l18 -52 16 55
c10 30 22 56 29 58 15 5 15 7 -14 -78 -14 -40 -25 -91 -25 -112 0 -21 -4 -38
-10 -38 -5 0 -10 17 -10 38 0 21 -11 70 -24 109 -23 67 -24 89 -5 78 4 -3 15
-29 25 -58z m217 46 c4 -3 8 -28 7 -56 0 -29 2 -68 6 -88 7 -45 -14 -69 -62
-69 l-34 0 0 116 0 116 37 -7 c21 -4 41 -9 46 -12z m165 -1 c2 -8 -8 -12 -32
-12 -34 0 -36 -2 -36 -34 0 -30 4 -35 25 -38 14 -2 26 -7 26 -13 0 -5 -12 -11
-26 -13 -22 -3 -25 -8 -25 -43 0 -38 1 -39 35 -39 19 0 35 -4 35 -10 0 -5 -20
-10 -45 -10 l-45 0 0 116 0 115 42 -3 c23 -2 43 -9 46 -16z m147 -3 c5 -5 8
-25 7 -44 -4 -60 -3 -69 4 -117 6 -41 4 -48 -10 -48 -12 0 -16 10 -16 44 0 31
-5 46 -16 50 -30 11 -34 6 -34 -44 0 -27 -4 -50 -10 -50 -6 0 -10 45 -10 116
l0 116 38 -7 c20 -3 41 -11 47 -16z m206 -63 c9 -42 19 -79 22 -82 2 -3 8 12
12 33 19 106 27 133 41 133 11 0 14 -22 14 -115 0 -130 -17 -159 -22 -37 l-3
77 -15 -74 c-8 -41 -20 -76 -27 -78 -7 -3 -16 18 -23 54 -19 100 -29 106 -29
21 -1 -45 -5 -78 -11 -78 -11 0 -14 212 -3 224 16 16 29 -6 44 -78z m234 70
c16 -11 20 -29 23 -88 3 -86 -11 -122 -49 -126 -45 -5 -59 20 -59 109 0 66 3
82 20 99 24 24 39 25 65 6z m135 -67 l25 -74 3 78 c4 118 22 83 22 -44 0 -137
-15 -145 -53 -26 l-26 82 0 -82 c-1 -67 -4 -83 -16 -83 -12 0 -15 19 -15 108
0 60 3 112 7 116 15 15 29 -4 53 -75z m202 65 c13 -8 9 -189 -4 -202 -7 -7
-29 -12 -50 -12 l-38 0 0 108 c0 60 3 112 7 116 7 7 70 -1 85 -10z m149 -24
c32 -154 36 -190 23 -190 -7 0 -14 10 -16 23 -2 17 -10 22 -33 22 -23 0 -31
-5 -33 -22 -4 -25 -22 -32 -22 -9 0 12 20 120 36 194 7 35 37 24 45 -18z m127
-17 l19 -58 17 52 c17 52 36 78 36 50 0 -8 -9 -40 -20 -72 -11 -32 -20 -78
-20 -102 0 -32 -4 -43 -15 -43 -11 0 -15 12 -15 44 0 24 -9 73 -20 108 -23 72
-23 78 -11 78 5 0 18 -26 29 -57z m369 -185 c-3 -8 -6 -5 -6 6 -1 11 2 17 5
13 3 -3 4 -12 1 -19z m-2062 -58 c11 -12 15 -26 10 -37 -6 -16 -8 -16 -16 5
-9 23 -48 31 -50 10 -3 -29 5 -45 37 -74 53 -49 44 -114 -16 -114 -32 0 -50
17 -50 47 0 31 16 29 24 -2 7 -27 25 -32 44 -13 18 18 16 22 -28 73 -43 50
-49 78 -23 107 21 23 45 23 68 -2z m166 5 c0 -5 -9 -11 -21 -13 -19 -3 -20
-10 -20 -103 0 -59 -4 -99 -10 -99 -6 0 -10 40 -10 100 0 93 -1 100 -20 100
-12 0 -20 7 -20 16 0 13 10 15 50 12 28 -2 50 -7 51 -13z m147 -2 c2 -9 -8
-13 -33 -13 -36 0 -36 0 -33 -37 3 -32 7 -38 27 -38 13 0 26 -6 28 -12 3 -9
-6 -13 -27 -13 -30 0 -31 -1 -28 -37 3 -35 6 -38 36 -41 48 -5 39 -22 -13 -22
l-45 0 0 116 0 115 42 -3 c23 -2 43 -9 46 -15z m136 0 c7 -26 36 -183 36 -199
0 -24 -17 -15 -24 12 -5 20 -12 25 -34 22 -19 -2 -28 -9 -30 -25 -2 -13 -9
-23 -16 -23 -10 0 -9 23 6 103 10 56 21 108 23 115 6 18 33 15 39 -5z m154
-191 c48 -5 39 -22 -13 -22 l-45 0 0 108 c0 60 3 112 8 116 4 4 9 -39 12 -96
l5 -103 33 -3z m167 188 c10 -11 15 -26 11 -35 -7 -19 -26 -11 -26 11 0 21
-44 14 -48 -8 -2 -9 15 -36 37 -59 23 -23 41 -50 41 -61 0 -35 -19 -58 -48
-58 -34 0 -52 16 -52 47 0 30 18 30 22 1 4 -33 42 -31 46 2 2 18 -7 35 -33 60
-38 37 -46 78 -19 104 21 22 47 20 69 -4z m1292 -42 c-2 -13 -4 -5 -4 17 -1
22 1 32 4 23 2 -10 2 -28 0 -40z m0 -90 c-2 -13 -4 -3 -4 22 0 25 2 35 4 23 2
-13 2 -33 0 -45z m0 -60 c-3 -7 -5 -2 -5 12 0 14 2 19 5 13 2 -7 2 -19 0 -25z"/>
<path d="M550 675 c0 -32 3 -36 23 -33 17 2 22 10 22 33 0 23 -5 31 -22 33
-20 3 -23 -1 -23 -33z"/>
<path d="M550 575 c0 -42 2 -46 23 -43 19 3 22 9 22 43 0 34 -3 40 -22 43 -21
3 -23 -1 -23 -43z"/>
<path d="M860 670 c0 -37 2 -41 23 -38 18 2 22 9 22 38 0 29 -4 36 -22 38 -21
3 -23 -1 -23 -38z"/>
<path d="M1312 623 c3 -80 5 -88 23 -88 18 0 20 7 20 85 0 81 -1 85 -23 88
-22 3 -23 2 -20 -85z"/>
<path d="M1640 621 c0 -92 5 -103 38 -82 9 5 12 30 10 87 -3 73 -5 79 -25 82
-22 3 -23 1 -23 -87z"/>
<path d="M1816 655 c-4 -22 -9 -48 -12 -57 -4 -14 1 -18 21 -18 25 0 26 2 19
38 -13 71 -20 80 -28 37z"/>
<path d="M707 395 c-3 -11 -9 -37 -13 -57 -6 -36 -5 -38 19 -38 24 0 24 2 17
38 -5 20 -10 46 -12 57 l-4 20 -7 -20z"/>
<path d="M4337 855 c-19 -25 -38 -61 -41 -80 -4 -19 -9 -35 -11 -35 -2 0 -29
13 -61 30 -45 23 -61 27 -76 19 -59 -32 -218 -142 -218 -151 0 -26 57 -108
124 -178 49 -52 39 -44 -32 25 -71 69 -101 105 -98 117 2 10 0 21 -5 24 -5 3
-9 -7 -10 -23 l-1 -28 -9 27 c-13 35 -35 42 -59 18 -26 -26 -28 -80 -2 -73 33
8 44 -19 28 -71 -10 -32 -12 -57 -5 -78 4 -17 6 -34 4 -38 -3 -5 2 -10 10 -14
8 -3 15 -17 15 -31 0 -14 4 -25 10 -25 5 0 16 -13 24 -28 13 -26 13 -32 -5
-61 -11 -18 -23 -30 -28 -27 -5 3 -11 -1 -15 -9 -6 -16 -73 -19 -91 -4 -6 4
-29 -9 -54 -33 -32 -31 -39 -43 -29 -49 7 -5 140 -9 296 -9 l283 0 23 25 c19
21 28 24 48 16 13 -5 30 -16 37 -25 12 -14 48 -16 280 -16 272 0 434 8 426 20
-2 4 -19 5 -37 3 -32 -3 -32 -3 -8 8 14 7 29 13 34 13 5 1 12 10 17 21 4 11 8
15 8 8 1 -7 13 -1 28 13 14 13 31 23 37 22 19 -3 89 13 126 28 19 8 61 15 92
16 31 1 55 5 52 9 -2 4 8 7 23 7 15 0 29 5 31 11 2 6 8 11 14 11 6 0 18 9 28
20 16 19 16 23 1 77 -9 32 -24 72 -34 90 -25 47 -155 210 -223 279 -32 33 -75
86 -94 117 l-35 56 -392 1 -392 0 -34 -45z m263 -25 c-8 -5 -19 -10 -25 -10
-5 0 -3 5 5 10 8 5 20 10 25 10 6 0 3 -5 -5 -10z m-360 -97 l45 -47 -47 42
c-26 23 -52 42 -58 42 -6 0 -53 -27 -105 -60 -52 -33 -100 -60 -107 -60 -7 0
5 11 27 23 22 13 69 42 104 65 35 23 71 42 80 42 9 0 37 -21 61 -47z m258 7
c3 -7 0 -10 -6 -6 -6 3 -24 -5 -40 -19 -44 -37 -52 -31 -12 9 37 35 51 39 58
16z m-38 -203 c0 -5 -18 13 -40 38 -22 25 -40 49 -40 53 1 10 80 -81 80 -91z
m20 -75 c0 -5 -29 -30 -65 -56 -68 -50 -77 -60 -47 -54 15 4 129 -33 157 -50
5 -3 67 -5 137 -5 121 2 128 1 128 -17 0 -23 -18 -25 -54 -9 -20 10 -32 8 -62
-6 -24 -11 -65 -18 -118 -19 -45 -2 -93 -6 -107 -10 -22 -6 -27 -4 -32 13 -7
29 -67 52 -154 58 -45 4 -73 10 -73 17 0 7 8 13 18 14 9 1 40 5 68 8 43 5 63
15 125 64 83 66 79 63 79 52z m-245 -184 c24 -11 44 -52 32 -64 -10 -10 -75
16 -81 32 -17 43 0 54 49 32z"/>
<path d="M5605 878 c19 -64 81 -62 115 3 10 18 7 19 -55 19 -64 0 -66 -1 -60
-22z"/>
<path d="M6020 682 c0 -121 -3 -307 -7 -415 l-6 -197 636 0 637 0 0 415 0 415
-630 0 -630 0 0 -218z m962 33 c-5 -51 -18 -62 -16 -12 1 48 3 57 12 57 4 0 6
-20 4 -45z m42 23 c-1 -13 -3 -34 -4 -48 -2 -23 -3 -23 -9 5 -4 17 -4 38 1 48
12 23 15 22 12 -5z m-778 -45 c8 -38 34 -28 34 12 0 19 5 35 11 35 16 0 6 -62
-13 -73 -26 -17 -48 9 -47 52 1 20 3 27 6 16 2 -11 6 -30 9 -42z m401 42 c3
-9 -2 -24 -11 -34 -20 -22 -20 -28 2 -34 10 -3 6 -5 -10 -6 -33 -1 -35 9 -8
34 24 21 26 45 5 45 -8 0 -15 -5 -15 -12 0 -6 -3 -9 -6 -5 -9 9 5 27 22 27 8
0 17 -7 21 -15z m81 -21 c4 -38 -20 -63 -43 -44 -15 13 -21 61 -8 74 4 4 16 6
28 4 14 -2 21 -12 23 -34z m58 21 c6 -14 8 -13 21 2 11 13 11 11 -1 -9 -20
-33 -20 -39 -2 -32 19 7 31 -15 16 -29 -9 -9 -14 -8 -24 5 -10 14 -15 15 -26
5 -12 -10 -12 -9 -1 6 12 15 11 19 -4 31 -10 7 -15 18 -11 24 10 17 26 15 32
-3z m-332 -39 c1 -39 -11 -35 -14 4 -3 34 -1 44 6 37 4 -4 7 -22 8 -41z m-77
18 c8 -20 -9 -49 -28 -49 -8 0 -17 -7 -21 -15 -4 -8 -7 6 -7 33 -1 44 1 47 24
47 15 0 28 -7 32 -16z m161 -10 c4 -25 -22 -49 -43 -40 -15 5 -21 47 -8 60 14
14 48 1 51 -20z m397 -9 c0 -23 -5 -30 -19 -30 -24 0 -41 27 -33 49 4 11 15
16 29 14 18 -2 23 -9 23 -33z m-222 -138 c11 -4 16 -16 16 -34 l-2 -28 -4 28
c-2 15 -10 27 -18 27 -8 0 -16 -12 -18 -27 -3 -18 -4 -12 -5 17 -1 25 2 40 6
34 4 -6 15 -13 25 -17z m244 -24 c-3 -10 -5 -2 -5 17 0 19 2 27 5 18 2 -10 2
-26 0 -35z m-312 -7 c1 -20 -2 -33 -7 -30 -4 3 -8 21 -8 41 0 45 12 36 15 -11z
m-302 20 c7 -18 -1 -26 -25 -26 -11 0 -16 -5 -13 -11 4 -6 14 -8 24 -4 12 5
13 3 4 -6 -17 -17 -43 -3 -43 24 0 13 3 27 7 30 11 12 41 7 46 -7z m37 -12 c0
-22 17 -17 23 8 4 12 9 20 12 16 7 -7 -15 -58 -25 -58 -6 0 -30 44 -30 56 0 3
5 2 10 -1 6 -3 10 -13 10 -21z m108 3 c2 -12 -3 -17 -17 -17 -12 0 -21 -5 -21
-11 0 -6 9 -8 23 -4 17 6 19 5 10 -5 -26 -27 -67 16 -43 46 17 19 44 14 48 -9z
m44 11 c-5 -7 -12 -22 -15 -33 -4 -16 -5 -15 -6 6 -1 27 6 39 22 39 6 0 5 -5
-1 -12z m64 -12 c12 25 13 25 8 4 -12 -47 -24 -70 -35 -70 -8 0 -8 4 -1 13 5
7 6 21 1 32 -4 11 -8 27 -8 35 1 8 5 2 11 -14 l11 -29 13 29z m248 8 c9 -24 7
-44 -4 -44 -5 0 -10 12 -10 26 0 32 -22 27 -31 -7 -6 -21 -7 -21 -8 9 -1 27 2
32 23 32 13 0 27 -7 30 -16z m84 -7 c7 -37 -7 -68 -30 -65 -12 2 -22 11 -24
21 -1 11 -5 21 -8 24 -3 3 -1 14 5 25 13 24 52 20 57 -5z m-158 -12 c0 -14 -4
-25 -10 -25 -5 0 -10 11 -10 25 0 14 5 25 10 25 6 0 10 -11 10 -25z m220 -215
l0 -60 -365 0 -365 0 0 60 0 60 365 0 365 0 0 -60z"/>
<path d="M6684 726 c-9 -23 0 -51 16 -51 10 0 15 10 15 29 0 32 -21 47 -31 22z"/>
<path d="M6760 729 c0 -5 5 -7 10 -4 6 3 10 8 10 11 0 2 -4 4 -10 4 -5 0 -10
-5 -10 -11z"/>
<path d="M6800 679 c0 -5 5 -7 10 -4 6 3 10 8 10 11 0 2 -4 4 -10 4 -5 0 -10
-5 -10 -11z"/>
<path d="M6333 704 c-8 -21 13 -42 28 -27 13 13 5 43 -11 43 -6 0 -13 -7 -17
-16z"/>
<path d="M6492 698 c2 -12 10 -23 18 -23 22 0 19 39 -3 43 -15 3 -18 -1 -15
-20z"/>
<path d="M6893 704 c-7 -18 11 -39 26 -30 17 11 13 46 -4 46 -9 0 -18 -7 -22
-16z"/>
<path d="M6300 540 c0 -5 7 -10 15 -10 8 0 15 5 15 10 0 6 -7 10 -15 10 -8 0
-15 -4 -15 -10z"/>
<path d="M6450 540 c0 -5 7 -10 15 -10 8 0 15 5 15 10 0 6 -7 10 -15 10 -8 0
-15 -4 -15 -10z"/>
<path d="M6880 531 c0 -11 5 -23 11 -27 8 -4 7 -9 -2 -15 -11 -7 -10 -9 4 -9
13 0 17 8 17 35 0 24 -5 35 -15 35 -8 0 -15 -9 -15 -19z"/>
<path d="M6425 320 c-8 -13 5 -13 25 0 13 8 13 10 -2 10 -9 0 -20 -4 -23 -10z"/>
<path d="M6470 311 c0 -13 7 -18 25 -18 18 0 25 5 25 18 0 21 -16 26 -23 7 -4
-10 -6 -10 -6 0 -1 20 -21 14 -21 -7z"/>
<path d="M6533 314 c-3 -8 -1 -20 5 -26 15 -15 43 8 35 28 -7 19 -32 18 -40
-2z m27 -10 c0 -8 -4 -12 -10 -9 -5 3 -10 10 -10 16 0 5 5 9 10 9 6 0 10 -7
10 -16z"/>
<path d="M6590 310 c0 -18 3 -19 20 -10 22 12 18 30 -6 30 -8 0 -14 -9 -14
-20z"/>
<path d="M6656 314 c-8 -22 -9 -21 19 -21 19 0 25 5 24 21 0 11 -3 15 -6 8 -4
-9 -9 -10 -18 -2 -9 8 -14 6 -19 -6z"/>
<path d="M6714 319 c-3 -6 0 -17 7 -25 18 -17 44 -2 36 20 -7 18 -33 21 -43 5z
m36 -8 c0 -6 -4 -13 -10 -16 -5 -3 -10 1 -10 9 0 9 5 16 10 16 6 0 10 -4 10
-9z"/>
<path d="M6775 312 c3 -7 5 -18 5 -24 0 -7 5 -6 14 1 11 9 15 9 19 -1 3 -8 9
-3 15 12 11 28 6 42 -8 20 -6 -9 -10 -10 -10 -3 0 6 -9 11 -20 10 -13 -1 -19
-6 -15 -15z"/>
<path d="M6431 301 c-9 -6 -10 -11 -2 -15 13 -8 31 1 31 15 0 11 -11 11 -29 0z"/>
<path d="M5544 575 c49 -65 83 -86 56 -35 -5 10 -29 33 -52 52 l-43 33 39 -50z"/>
<path d="M3896 267 c3 -10 9 -15 12 -12 3 3 0 11 -7 18 -10 9 -11 8 -5 -6z"/>
<path d="M3296 95 c10 -8 26 -14 34 -14 9 0 4 6 -10 14 -33 19 -49 19 -24 0z"/>
</g>
</svg>
