<?xml version="1.0" encoding="UTF-8"?><svg xmlns="http://www.w3.org/2000/svg" xmlns:xlink="http://www.w3.org/1999/xlink" width="546pt" zoomAndPan="magnify" viewBox="0 0 546 67.499998" height="67.499998pt" preserveAspectRatio="xMidYMid meet" version="1.2"><defs><g/><clipPath xml:id="clip1" id="clip1"><path d="M 2.007812 0 L 543.992188 0 L 543.992188 67.003906 L 2.007812 67.003906 Z M 2.007812 0 "/></clipPath><clipPath xml:id="clip2" id="clip2"><path d="M 454.417969 0 L 543.992188 0 L 543.992188 67.003906 L 454.417969 67.003906 Z M 454.417969 0 "/></clipPath><clipPath xml:id="clip3" id="clip3"><path d="M 2.007812 0 L 220 0 L 220 67.003906 L 2.007812 67.003906 Z M 2.007812 0 "/></clipPath><filter x="0%" y="0%" width="100%" xmlns:xlink="http://www.w3.org/1999/xlink" xlink:type="simple" filterUnits="objectBoundingBox" xlink:actuate="onLoad" id="alpha" height="100%" xlink:show="other" xml:id="alpha"><feColorMatrix values="0 0 0 0 1 0 0 0 0 1 0 0 0 0 1 0 0 0 1 0" type="matrix" in="SourceGraphic"/></filter><clipPath xml:id="clip5" id="clip5"><path d="M 9 37 L 117 37 L 117 67.003906 L 9 67.003906 Z M 9 37 "/></clipPath><clipPath xml:id="clip6" id="clip6"><path d="M 0.0078125 0 L 217.535156 0 L 217.535156 67.003906 L 0.0078125 67.003906 Z M 0.0078125 0 "/></clipPath><clipPath xml:id="clip4" id="clip4"><rect x="0" width="218" y="0" height="68"/></clipPath></defs><g xml:id="surface1" id="surface1"><g clip-rule="nonzero" clip-path="url(#clip1)"><path style=" stroke:none;fill-rule:nonzero;fill:rgb(100%,100%,100%);fill-opacity:1;" d="M 2.007812 0 L 543.992188 0 L 543.992188 74.449219 L 2.007812 74.449219 Z M 2.007812 0 "/><path style=" stroke:none;fill-rule:nonzero;fill:rgb(100%,100%,100%);fill-opacity:1;" d="M 2.007812 0 L 543.992188 0 L 543.992188 67.003906 L 2.007812 67.003906 Z M 2.007812 0 "/><path style=" stroke:none;fill-rule:nonzero;fill:rgb(94.119263%,15.689087%,0%);fill-opacity:1;" d="M 2.007812 0 L 543.992188 0 L 543.992188 67.003906 L 2.007812 67.003906 Z M 2.007812 0 "/></g><g clip-rule="nonzero" clip-path="url(#clip2)"><path style=" stroke:none;fill-rule:nonzero;fill:rgb(100%,100%,100%);fill-opacity:1;" d="M 419.621094 -36.746094 L 559.304688 -36.746094 L 559.304688 102.472656 L 419.621094 102.472656 Z M 419.621094 -36.746094 "/></g><g clip-rule="nonzero" clip-path="url(#clip3)"><g mask="url(#mask0)" transform="matrix(1,0,0,1,2,0)"><g xml:id="surface5" id="surface5" clip-path="url(#clip4)"><g clip-rule="nonzero" clip-path="url(#clip5)"><path style=" stroke:none;fill-rule:nonzero;fill:rgb(100%,100%,100%);fill-opacity:1;" d="M 9.679688 91.308594 L 29.71875 91.308594 L 63.023438 57.898438 L 96.324219 91.308594 L 116.363281 91.308594 L 63.023438 37.785156 Z M 9.679688 91.308594 "/></g><g clip-rule="nonzero" clip-path="url(#clip6)"><path style=" stroke:none;fill-rule:nonzero;fill:rgb(100%,100%,100%);fill-opacity:1;" d="M 159.34375 33.046875 L 138.261719 54.203125 L 64.675781 -19.621094 L -45.886719 91.308594 L -27.695312 91.308594 L 64.675781 -1.371094 L 129.160156 63.339844 L 138.261719 72.457031 L 147.355469 63.339844 L 159.34375 51.304688 L 199.21875 91.308594 L 217.414062 91.308594 Z M 159.34375 33.046875 "/></g></g><mask xml:id="mask0" id="mask0"><g filter="url(#alpha)"><rect x="0" width="546" y="0" height="67.499998" style="fill:rgb(0%,0%,0%);fill-opacity:0.3686;stroke:none;"/></g></mask></g></g><g style="fill:rgb(100%,100%,100%);fill-opacity:1;"><g transform="translate(269.902813, 37.750542)"><path style="stroke:none;" d="M 1.53125 0 L 1.53125 -14.6875 L 4.390625 -14.6875 L 4.390625 -7.703125 L 10.5625 -14.703125 L 13.71875 -14.703125 L 8.078125 -8.1875 L 14.0625 0 L 10.859375 0 L 6.28125 -6.359375 L 4.390625 -4.390625 L 4.390625 0 Z M 1.53125 0 "/></g></g><g style="fill:rgb(100%,100%,100%);fill-opacity:1;"><g transform="translate(283.755116, 37.750542)"><path style="stroke:none;" d="M 3.046875 -14.703125 L 7.03125 -3.578125 L 10.953125 -14.703125 L 13.96875 -14.703125 L 8.21875 0 L 5.828125 0 L 0.046875 -14.703125 Z M 3.046875 -14.703125 "/></g></g><g style="fill:rgb(100%,100%,100%);fill-opacity:1;"><g transform="translate(297.752361, 37.750542)"><path style="stroke:none;" d="M 13.390625 -3.796875 C 13.390625 -3.171875 13.265625 -2.625 13.015625 -2.15625 C 12.765625 -1.6875 12.421875 -1.289062 11.984375 -0.96875 C 11.546875 -0.65625 11.039062 -0.414062 10.46875 -0.25 C 9.894531 -0.0820312 9.285156 0 8.640625 0 L 1.53125 0 L 1.53125 -14.703125 L 9.40625 -14.703125 C 9.914062 -14.703125 10.378906 -14.59375 10.796875 -14.375 C 11.210938 -14.15625 11.5625 -13.867188 11.84375 -13.515625 C 12.132812 -13.160156 12.359375 -12.757812 12.515625 -12.3125 C 12.679688 -11.863281 12.765625 -11.410156 12.765625 -10.953125 C 12.765625 -10.242188 12.582031 -9.570312 12.21875 -8.9375 C 11.863281 -8.3125 11.34375 -7.847656 10.65625 -7.546875 C 11.488281 -7.296875 12.148438 -6.847656 12.640625 -6.203125 C 13.140625 -5.554688 13.390625 -4.753906 13.390625 -3.796875 Z M 10.5 -4.328125 C 10.5 -4.585938 10.453125 -4.835938 10.359375 -5.078125 C 10.273438 -5.328125 10.15625 -5.539062 10 -5.71875 C 9.851562 -5.894531 9.675781 -6.035156 9.46875 -6.140625 C 9.257812 -6.242188 9.03125 -6.296875 8.78125 -6.296875 L 4.390625 -6.296875 L 4.390625 -2.421875 L 8.640625 -2.421875 C 8.898438 -2.421875 9.144531 -2.46875 9.375 -2.5625 C 9.601562 -2.664062 9.800781 -2.800781 9.96875 -2.96875 C 10.132812 -3.144531 10.265625 -3.347656 10.359375 -3.578125 C 10.453125 -3.816406 10.5 -4.066406 10.5 -4.328125 Z M 4.390625 -12.265625 L 4.390625 -8.5625 L 8.203125 -8.5625 C 8.691406 -8.5625 9.101562 -8.722656 9.4375 -9.046875 C 9.769531 -9.378906 9.9375 -9.835938 9.9375 -10.421875 C 9.9375 -10.984375 9.78125 -11.429688 9.46875 -11.765625 C 9.164062 -12.097656 8.785156 -12.265625 8.328125 -12.265625 Z M 4.390625 -12.265625 "/></g></g><g style="fill:rgb(100%,100%,100%);fill-opacity:1;"><g transform="translate(311.832431, 37.750542)"><path style="stroke:none;" d=""/></g></g><g style="fill:rgb(100%,100%,100%);fill-opacity:1;"><g transform="translate(316.801873, 37.750542)"><path style="stroke:none;" d="M 10.296875 -10.859375 C 10.203125 -10.953125 10.023438 -11.082031 9.765625 -11.25 C 9.515625 -11.414062 9.203125 -11.578125 8.828125 -11.734375 C 8.460938 -11.890625 8.066406 -12.023438 7.640625 -12.140625 C 7.210938 -12.253906 6.78125 -12.3125 6.34375 -12.3125 C 5.550781 -12.3125 4.960938 -12.164062 4.578125 -11.875 C 4.191406 -11.582031 4 -11.175781 4 -10.65625 C 4 -10.34375 4.070312 -10.085938 4.21875 -9.890625 C 4.363281 -9.691406 4.570312 -9.515625 4.84375 -9.359375 C 5.125 -9.210938 5.472656 -9.078125 5.890625 -8.953125 C 6.316406 -8.828125 6.804688 -8.695312 7.359375 -8.5625 C 8.078125 -8.363281 8.726562 -8.15625 9.3125 -7.9375 C 9.894531 -7.71875 10.390625 -7.441406 10.796875 -7.109375 C 11.210938 -6.773438 11.53125 -6.375 11.75 -5.90625 C 11.96875 -5.445312 12.078125 -4.878906 12.078125 -4.203125 C 12.078125 -3.421875 11.925781 -2.75 11.625 -2.1875 C 11.332031 -1.625 10.929688 -1.171875 10.421875 -0.828125 C 9.921875 -0.484375 9.34375 -0.226562 8.6875 -0.0625 C 8.03125 0.09375 7.34375 0.171875 6.625 0.171875 C 5.519531 0.171875 4.425781 0.00390625 3.34375 -0.328125 C 2.269531 -0.660156 1.304688 -1.128906 0.453125 -1.734375 L 1.71875 -4.203125 C 1.84375 -4.078125 2.066406 -3.914062 2.390625 -3.71875 C 2.710938 -3.519531 3.09375 -3.316406 3.53125 -3.109375 C 3.976562 -2.910156 4.472656 -2.742188 5.015625 -2.609375 C 5.554688 -2.472656 6.109375 -2.40625 6.671875 -2.40625 C 8.242188 -2.40625 9.03125 -2.910156 9.03125 -3.921875 C 9.03125 -4.234375 8.941406 -4.5 8.765625 -4.71875 C 8.585938 -4.945312 8.332031 -5.140625 8 -5.296875 C 7.664062 -5.460938 7.265625 -5.613281 6.796875 -5.75 C 6.328125 -5.894531 5.800781 -6.050781 5.21875 -6.21875 C 4.519531 -6.40625 3.910156 -6.613281 3.390625 -6.84375 C 2.867188 -7.070312 2.4375 -7.34375 2.09375 -7.65625 C 1.75 -7.96875 1.488281 -8.328125 1.3125 -8.734375 C 1.144531 -9.140625 1.0625 -9.625 1.0625 -10.1875 C 1.0625 -10.9375 1.195312 -11.597656 1.46875 -12.171875 C 1.75 -12.753906 2.132812 -13.238281 2.625 -13.625 C 3.113281 -14.019531 3.679688 -14.316406 4.328125 -14.515625 C 4.972656 -14.710938 5.671875 -14.8125 6.421875 -14.8125 C 7.460938 -14.8125 8.414062 -14.648438 9.28125 -14.328125 C 10.15625 -14.003906 10.914062 -13.617188 11.5625 -13.171875 Z M 10.296875 -10.859375 "/></g></g><g style="fill:rgb(100%,100%,100%);fill-opacity:1;"><g transform="translate(329.494644, 37.750542)"><path style="stroke:none;" d="M 12.53125 -12.203125 L 7.828125 -12.203125 L 7.828125 0 L 5 0 L 5 -12.203125 L 0.296875 -12.203125 L 0.296875 -14.703125 L 12.53125 -14.703125 Z M 12.53125 -12.203125 "/></g></g><g style="fill:rgb(100%,100%,100%);fill-opacity:1;"><g transform="translate(342.311648, 37.750542)"><path style="stroke:none;" d="M 5.71875 -14.703125 L 8.25 -14.703125 L 13.84375 0 L 10.890625 0 L 9.53125 -3.671875 L 4.390625 -3.671875 L 3.046875 0 L 0.109375 0 Z M 9.015625 -5.671875 L 6.984375 -11.453125 L 4.875 -5.671875 Z M 9.015625 -5.671875 "/></g></g><g style="fill:rgb(100%,100%,100%);fill-opacity:1;"><g transform="translate(356.226067, 37.750542)"><path style="stroke:none;" d="M 12.53125 -12.203125 L 7.828125 -12.203125 L 7.828125 0 L 5 0 L 5 -12.203125 L 0.296875 -12.203125 L 0.296875 -14.703125 L 12.53125 -14.703125 Z M 12.53125 -12.203125 "/></g></g><g style="fill:rgb(100%,100%,100%);fill-opacity:1;"><g transform="translate(369.043071, 37.750542)"><path style="stroke:none;" d="M 1.53125 0 L 1.53125 -14.703125 L 4.390625 -14.703125 L 4.390625 0 Z M 1.53125 0 "/></g></g><g style="fill:rgb(100%,100%,100%);fill-opacity:1;"><g transform="translate(374.964986, 37.750542)"><path style="stroke:none;" d="M 7.8125 0.109375 C 6.726562 0.109375 5.75 -0.0976562 4.875 -0.515625 C 4 -0.941406 3.242188 -1.503906 2.609375 -2.203125 C 1.984375 -2.898438 1.5 -3.695312 1.15625 -4.59375 C 0.8125 -5.5 0.640625 -6.421875 0.640625 -7.359375 C 0.640625 -8.335938 0.820312 -9.273438 1.1875 -10.171875 C 1.550781 -11.066406 2.054688 -11.859375 2.703125 -12.546875 C 3.347656 -13.242188 4.109375 -13.796875 4.984375 -14.203125 C 5.867188 -14.609375 6.832031 -14.8125 7.875 -14.8125 C 8.9375 -14.8125 9.90625 -14.59375 10.78125 -14.15625 C 11.65625 -13.726562 12.40625 -13.160156 13.03125 -12.453125 C 13.65625 -11.742188 14.140625 -10.941406 14.484375 -10.046875 C 14.828125 -9.148438 15 -8.238281 15 -7.3125 C 15 -6.332031 14.816406 -5.394531 14.453125 -4.5 C 14.097656 -3.613281 13.601562 -2.828125 12.96875 -2.140625 C 12.332031 -1.460938 11.570312 -0.914062 10.6875 -0.5 C 9.800781 -0.09375 8.84375 0.109375 7.8125 0.109375 Z M 3.546875 -7.359375 C 3.546875 -6.722656 3.640625 -6.109375 3.828125 -5.515625 C 4.023438 -4.921875 4.304688 -4.394531 4.671875 -3.9375 C 5.035156 -3.476562 5.484375 -3.109375 6.015625 -2.828125 C 6.546875 -2.554688 7.148438 -2.421875 7.828125 -2.421875 C 8.523438 -2.421875 9.140625 -2.5625 9.671875 -2.84375 C 10.203125 -3.132812 10.648438 -3.515625 11.015625 -3.984375 C 11.378906 -4.453125 11.65625 -4.976562 11.84375 -5.5625 C 12.03125 -6.144531 12.125 -6.742188 12.125 -7.359375 C 12.125 -7.992188 12.019531 -8.609375 11.8125 -9.203125 C 11.613281 -9.796875 11.332031 -10.316406 10.96875 -10.765625 C 10.601562 -11.222656 10.15625 -11.585938 9.625 -11.859375 C 9.09375 -12.128906 8.492188 -12.265625 7.828125 -12.265625 C 7.140625 -12.265625 6.523438 -12.125 5.984375 -11.84375 C 5.453125 -11.5625 5.003906 -11.1875 4.640625 -10.71875 C 4.285156 -10.257812 4.015625 -9.734375 3.828125 -9.140625 C 3.640625 -8.554688 3.546875 -7.960938 3.546875 -7.359375 Z M 3.546875 -7.359375 "/></g></g><g style="fill:rgb(100%,100%,100%);fill-opacity:1;"><g transform="translate(390.618704, 37.750542)"><path style="stroke:none;" d="M 4.390625 -9.421875 L 4.390625 0 L 1.53125 0 L 1.53125 -14.703125 L 3.75 -14.703125 L 11.421875 -5.0625 L 11.421875 -14.6875 L 14.28125 -14.6875 L 14.28125 0 L 11.953125 0 Z M 4.390625 -9.421875 "/></g></g><g style="fill:rgb(100%,100%,100%);fill-opacity:1;"><g transform="translate(406.417364, 37.750542)"><path style="stroke:none;" d="M 11.75 -2.5 L 11.75 0 L 1.53125 0 L 1.53125 -14.703125 L 11.5625 -14.703125 L 11.5625 -12.203125 L 4.390625 -12.203125 L 4.390625 -8.65625 L 10.59375 -8.65625 L 10.59375 -6.34375 L 4.390625 -6.34375 L 4.390625 -2.5 Z M 11.75 -2.5 "/></g></g><g style="fill:rgb(100%,100%,100%);fill-opacity:1;"><g transform="translate(418.858028, 37.750542)"><path style="stroke:none;" d="M 1.53125 0 L 1.53125 -14.703125 L 8.03125 -14.703125 C 8.707031 -14.703125 9.332031 -14.5625 9.90625 -14.28125 C 10.488281 -14 10.984375 -13.625 11.390625 -13.15625 C 11.804688 -12.695312 12.128906 -12.175781 12.359375 -11.59375 C 12.597656 -11.007812 12.71875 -10.421875 12.71875 -9.828125 C 12.71875 -8.867188 12.476562 -8 12 -7.21875 C 11.53125 -6.4375 10.882812 -5.875 10.0625 -5.53125 L 13.421875 0 L 10.21875 0 L 7.203125 -4.9375 L 4.390625 -4.9375 L 4.390625 0 Z M 4.390625 -7.4375 L 7.984375 -7.4375 C 8.242188 -7.4375 8.484375 -7.5 8.703125 -7.625 C 8.929688 -7.75 9.128906 -7.914062 9.296875 -8.125 C 9.460938 -8.34375 9.59375 -8.597656 9.6875 -8.890625 C 9.789062 -9.179688 9.84375 -9.492188 9.84375 -9.828125 C 9.84375 -10.171875 9.785156 -10.484375 9.671875 -10.765625 C 9.566406 -11.054688 9.421875 -11.304688 9.234375 -11.515625 C 9.046875 -11.734375 8.828125 -11.898438 8.578125 -12.015625 C 8.335938 -12.140625 8.097656 -12.203125 7.859375 -12.203125 L 4.390625 -12.203125 Z M 4.390625 -7.4375 "/></g></g><g style="fill:rgb(100%,100%,100%);fill-opacity:1;"><g transform="translate(432.627505, 37.750542)"><path style="stroke:none;" d="M 3.1875 -14.703125 L 6.8125 -7.625 L 10.5 -14.703125 L 13.59375 -14.703125 L 8.25 -5.140625 L 8.25 0 L 5.40625 0 L 5.40625 -5.1875 L 0.078125 -14.703125 Z M 3.1875 -14.703125 "/></g></g><g style="fill:rgb(100%,100%,100%);fill-opacity:1;"><g transform="translate(353.422862, 50.702004)"><path style="stroke:none;" d="M 2.375 -5.265625 L 3.3125 -5.265625 L 3.90625 -3.515625 L 4.5 -5.265625 L 5.453125 -5.265625 L 4.5625 -2.859375 L 5.234375 -1.171875 L 6.71875 -5.28125 L 7.84375 -5.28125 L 5.6875 0 L 4.828125 0 L 3.90625 -2.21875 L 3 0 L 2.140625 0 L 0 -5.28125 L 1.09375 -5.28125 L 2.609375 -1.171875 L 3.25 -2.859375 Z M 2.375 -5.265625 "/></g></g><g style="fill:rgb(100%,100%,100%);fill-opacity:1;"><g transform="translate(361.26228, 50.702004)"><path style="stroke:none;" d="M 2.78125 -3.03125 C 2.476562 -3.03125 2.207031 -2.972656 1.96875 -2.859375 C 1.726562 -2.742188 1.554688 -2.578125 1.453125 -2.359375 L 1.453125 0 L 0.453125 0 L 0.453125 -3.890625 L 1.375 -3.890625 L 1.375 -3.0625 C 1.4375 -3.195312 1.515625 -3.316406 1.609375 -3.421875 C 1.703125 -3.523438 1.800781 -3.617188 1.90625 -3.703125 C 2.019531 -3.785156 2.132812 -3.847656 2.25 -3.890625 C 2.363281 -3.929688 2.472656 -3.953125 2.578125 -3.953125 C 2.628906 -3.953125 2.664062 -3.953125 2.6875 -3.953125 C 2.71875 -3.953125 2.75 -3.945312 2.78125 -3.9375 Z M 2.78125 -3.03125 "/></g></g><g style="fill:rgb(100%,100%,100%);fill-opacity:1;"><g transform="translate(364.143434, 50.702004)"><path style="stroke:none;" d="M 0.453125 0 L 0.453125 -3.890625 L 1.453125 -3.890625 L 1.453125 0 Z M 0.453125 -4.4375 L 0.453125 -5.421875 L 1.453125 -5.421875 L 1.453125 -4.4375 Z M 0.453125 -4.4375 "/></g></g><g style="fill:rgb(100%,100%,100%);fill-opacity:1;"><g transform="translate(366.041874, 50.702004)"><path style="stroke:none;" d="M 2.78125 -0.203125 C 2.65625 -0.140625 2.492188 -0.078125 2.296875 -0.015625 C 2.109375 0.0351562 1.90625 0.0625 1.6875 0.0625 C 1.550781 0.0625 1.421875 0.046875 1.296875 0.015625 C 1.171875 -0.015625 1.0625 -0.0664062 0.96875 -0.140625 C 0.882812 -0.222656 0.8125 -0.320312 0.75 -0.4375 C 0.695312 -0.5625 0.671875 -0.710938 0.671875 -0.890625 L 0.671875 -3.125 L 0.15625 -3.125 L 0.15625 -3.890625 L 0.671875 -3.890625 L 0.671875 -5.15625 L 1.671875 -5.15625 L 1.671875 -3.890625 L 2.484375 -3.890625 L 2.484375 -3.125 L 1.671875 -3.125 L 1.671875 -1.234375 C 1.671875 -1.085938 1.707031 -0.984375 1.78125 -0.921875 C 1.851562 -0.867188 1.941406 -0.84375 2.046875 -0.84375 C 2.148438 -0.84375 2.25 -0.859375 2.34375 -0.890625 C 2.445312 -0.929688 2.53125 -0.960938 2.59375 -0.984375 Z M 2.78125 -0.203125 "/></g></g><g style="fill:rgb(100%,100%,100%);fill-opacity:1;"><g transform="translate(368.900694, 50.702004)"><path style="stroke:none;" d="M 2.265625 0.078125 C 1.953125 0.078125 1.664062 0.0234375 1.40625 -0.078125 C 1.15625 -0.191406 0.941406 -0.335938 0.765625 -0.515625 C 0.585938 -0.703125 0.445312 -0.914062 0.34375 -1.15625 C 0.25 -1.40625 0.203125 -1.660156 0.203125 -1.921875 C 0.203125 -2.203125 0.25 -2.460938 0.34375 -2.703125 C 0.4375 -2.953125 0.570312 -3.171875 0.75 -3.359375 C 0.9375 -3.546875 1.15625 -3.691406 1.40625 -3.796875 C 1.664062 -3.910156 1.953125 -3.96875 2.265625 -3.96875 C 2.585938 -3.96875 2.875 -3.910156 3.125 -3.796875 C 3.375 -3.691406 3.585938 -3.546875 3.765625 -3.359375 C 3.941406 -3.179688 4.070312 -2.96875 4.15625 -2.71875 C 4.25 -2.476562 4.296875 -2.226562 4.296875 -1.96875 C 4.296875 -1.894531 4.296875 -1.828125 4.296875 -1.765625 C 4.296875 -1.710938 4.289062 -1.664062 4.28125 -1.625 L 1.265625 -1.625 C 1.273438 -1.46875 1.3125 -1.332031 1.375 -1.21875 C 1.4375 -1.101562 1.515625 -1 1.609375 -0.90625 C 1.703125 -0.820312 1.804688 -0.757812 1.921875 -0.71875 C 2.046875 -0.675781 2.171875 -0.65625 2.296875 -0.65625 C 2.492188 -0.65625 2.679688 -0.703125 2.859375 -0.796875 C 3.035156 -0.890625 3.15625 -1.019531 3.21875 -1.1875 L 4.078125 -0.9375 C 3.929688 -0.644531 3.703125 -0.398438 3.390625 -0.203125 C 3.078125 -0.015625 2.703125 0.078125 2.265625 0.078125 Z M 3.265625 -2.28125 C 3.242188 -2.570312 3.132812 -2.804688 2.9375 -2.984375 C 2.75 -3.160156 2.519531 -3.25 2.25 -3.25 C 2.113281 -3.25 1.988281 -3.222656 1.875 -3.171875 C 1.757812 -3.117188 1.65625 -3.050781 1.5625 -2.96875 C 1.476562 -2.882812 1.40625 -2.78125 1.34375 -2.65625 C 1.289062 -2.539062 1.257812 -2.414062 1.25 -2.28125 Z M 3.265625 -2.28125 "/></g></g><g style="fill:rgb(100%,100%,100%);fill-opacity:1;"><g transform="translate(373.360153, 50.702004)"><path style="stroke:none;" d=""/></g></g><g style="fill:rgb(100%,100%,100%);fill-opacity:1;"><g transform="translate(375.146913, 50.702004)"><path style="stroke:none;" d="M 5.28125 -3.890625 L 6.234375 -3.890625 L 4.609375 0 L 3.78125 0 L 3.109375 -1.703125 L 2.453125 0 L 1.640625 0 L 0.015625 -3.890625 L 0.953125 -3.890625 L 2.109375 -0.9375 L 2.59375 -2.203125 L 1.90625 -3.890625 L 2.703125 -3.890625 L 3.109375 -2.6875 L 3.53125 -3.890625 L 4.34375 -3.890625 L 3.65625 -2.203125 L 4.125 -0.9375 Z M 5.28125 -3.890625 "/></g><g transform="translate(381.393145, 50.702004)"><path style="stroke:none;" d="M 0.453125 0 L 0.453125 -3.890625 L 1.453125 -3.890625 L 1.453125 0 Z M 0.453125 -4.4375 L 0.453125 -5.421875 L 1.453125 -5.421875 L 1.453125 -4.4375 Z M 0.453125 -4.4375 "/></g></g><g style="fill:rgb(100%,100%,100%);fill-opacity:1;"><g transform="translate(383.291584, 50.702004)"><path style="stroke:none;" d="M 2.78125 -0.203125 C 2.65625 -0.140625 2.492188 -0.078125 2.296875 -0.015625 C 2.109375 0.0351562 1.90625 0.0625 1.6875 0.0625 C 1.550781 0.0625 1.421875 0.046875 1.296875 0.015625 C 1.171875 -0.015625 1.0625 -0.0664062 0.96875 -0.140625 C 0.882812 -0.222656 0.8125 -0.320312 0.75 -0.4375 C 0.695312 -0.5625 0.671875 -0.710938 0.671875 -0.890625 L 0.671875 -3.125 L 0.15625 -3.125 L 0.15625 -3.890625 L 0.671875 -3.890625 L 0.671875 -5.15625 L 1.671875 -5.15625 L 1.671875 -3.890625 L 2.484375 -3.890625 L 2.484375 -3.125 L 1.671875 -3.125 L 1.671875 -1.234375 C 1.671875 -1.085938 1.707031 -0.984375 1.78125 -0.921875 C 1.851562 -0.867188 1.941406 -0.84375 2.046875 -0.84375 C 2.148438 -0.84375 2.25 -0.859375 2.34375 -0.890625 C 2.445312 -0.929688 2.53125 -0.960938 2.59375 -0.984375 Z M 2.78125 -0.203125 "/></g></g><g style="fill:rgb(100%,100%,100%);fill-opacity:1;"><g transform="translate(386.150404, 50.702004)"><path style="stroke:none;" d="M 4.078125 0 L 3.078125 0 L 3.078125 -2.1875 C 3.078125 -2.488281 3.019531 -2.710938 2.90625 -2.859375 C 2.789062 -3.015625 2.628906 -3.09375 2.421875 -3.09375 C 2.335938 -3.09375 2.242188 -3.070312 2.140625 -3.03125 C 2.046875 -2.988281 1.953125 -2.929688 1.859375 -2.859375 C 1.765625 -2.785156 1.679688 -2.695312 1.609375 -2.59375 C 1.535156 -2.5 1.484375 -2.394531 1.453125 -2.28125 L 1.453125 0 L 0.453125 0 L 0.453125 -5.421875 L 1.453125 -5.421875 L 1.453125 -3.171875 C 1.597656 -3.429688 1.789062 -3.628906 2.03125 -3.765625 C 2.28125 -3.898438 2.550781 -3.96875 2.84375 -3.96875 C 3.101562 -3.96875 3.3125 -3.921875 3.46875 -3.828125 C 3.625 -3.742188 3.742188 -3.628906 3.828125 -3.484375 C 3.921875 -3.335938 3.984375 -3.171875 4.015625 -2.984375 C 4.054688 -2.804688 4.078125 -2.625 4.078125 -2.4375 Z M 4.078125 0 "/></g></g><g style="fill:rgb(100%,100%,100%);fill-opacity:1;"><g transform="translate(390.64709, 50.702004)"><path style="stroke:none;" d=""/></g></g><g style="fill:rgb(100%,100%,100%);fill-opacity:1;"><g transform="translate(392.43385, 50.702004)"><path style="stroke:none;" d="M 1.921875 0.078125 C 1.597656 0.078125 1.28125 0.0234375 0.96875 -0.078125 C 0.65625 -0.179688 0.382812 -0.332031 0.15625 -0.53125 L 0.53125 -1.15625 C 0.769531 -0.988281 1 -0.859375 1.21875 -0.765625 C 1.445312 -0.679688 1.675781 -0.640625 1.90625 -0.640625 C 2.101562 -0.640625 2.257812 -0.675781 2.375 -0.75 C 2.488281 -0.820312 2.546875 -0.929688 2.546875 -1.078125 C 2.546875 -1.210938 2.476562 -1.3125 2.34375 -1.375 C 2.207031 -1.4375 1.988281 -1.507812 1.6875 -1.59375 C 1.4375 -1.664062 1.222656 -1.734375 1.046875 -1.796875 C 0.867188 -1.859375 0.722656 -1.929688 0.609375 -2.015625 C 0.503906 -2.097656 0.425781 -2.191406 0.375 -2.296875 C 0.320312 -2.410156 0.296875 -2.539062 0.296875 -2.6875 C 0.296875 -2.882812 0.332031 -3.0625 0.40625 -3.21875 C 0.488281 -3.375 0.597656 -3.507812 0.734375 -3.625 C 0.867188 -3.738281 1.03125 -3.820312 1.21875 -3.875 C 1.40625 -3.9375 1.609375 -3.96875 1.828125 -3.96875 C 2.117188 -3.96875 2.390625 -3.925781 2.640625 -3.84375 C 2.898438 -3.757812 3.140625 -3.625 3.359375 -3.4375 L 2.953125 -2.828125 C 2.753906 -2.984375 2.5625 -3.09375 2.375 -3.15625 C 2.1875 -3.226562 2.003906 -3.265625 1.828125 -3.265625 C 1.648438 -3.265625 1.503906 -3.226562 1.390625 -3.15625 C 1.285156 -3.09375 1.234375 -2.984375 1.234375 -2.828125 C 1.234375 -2.753906 1.242188 -2.695312 1.265625 -2.65625 C 1.296875 -2.613281 1.335938 -2.570312 1.390625 -2.53125 C 1.453125 -2.5 1.53125 -2.46875 1.625 -2.4375 C 1.726562 -2.40625 1.851562 -2.367188 2 -2.328125 C 2.257812 -2.265625 2.484375 -2.195312 2.671875 -2.125 C 2.867188 -2.050781 3.023438 -1.96875 3.140625 -1.875 C 3.265625 -1.789062 3.351562 -1.691406 3.40625 -1.578125 C 3.46875 -1.460938 3.5 -1.320312 3.5 -1.15625 C 3.5 -0.78125 3.359375 -0.476562 3.078125 -0.25 C 2.796875 -0.03125 2.410156 0.078125 1.921875 0.078125 Z M 1.921875 0.078125 "/></g></g><g style="fill:rgb(100%,100%,100%);fill-opacity:1;"><g transform="translate(396.133943, 50.702004)"><path style="stroke:none;" d="M 2.78125 -0.203125 C 2.65625 -0.140625 2.492188 -0.078125 2.296875 -0.015625 C 2.109375 0.0351562 1.90625 0.0625 1.6875 0.0625 C 1.550781 0.0625 1.421875 0.046875 1.296875 0.015625 C 1.171875 -0.015625 1.0625 -0.0664062 0.96875 -0.140625 C 0.882812 -0.222656 0.8125 -0.320312 0.75 -0.4375 C 0.695312 -0.5625 0.671875 -0.710938 0.671875 -0.890625 L 0.671875 -3.125 L 0.15625 -3.125 L 0.15625 -3.890625 L 0.671875 -3.890625 L 0.671875 -5.15625 L 1.671875 -5.15625 L 1.671875 -3.890625 L 2.484375 -3.890625 L 2.484375 -3.125 L 1.671875 -3.125 L 1.671875 -1.234375 C 1.671875 -1.085938 1.707031 -0.984375 1.78125 -0.921875 C 1.851562 -0.867188 1.941406 -0.84375 2.046875 -0.84375 C 2.148438 -0.84375 2.25 -0.859375 2.34375 -0.890625 C 2.445312 -0.929688 2.53125 -0.960938 2.59375 -0.984375 Z M 2.78125 -0.203125 "/></g></g><g style="fill:rgb(100%,100%,100%);fill-opacity:1;"><g transform="translate(398.992763, 50.702004)"><path style="stroke:none;" d="M 0.53125 0.765625 C 0.613281 0.785156 0.695312 0.800781 0.78125 0.8125 C 0.863281 0.820312 0.929688 0.828125 0.984375 0.828125 C 1.046875 0.828125 1.101562 0.816406 1.15625 0.796875 C 1.207031 0.773438 1.253906 0.734375 1.296875 0.671875 C 1.347656 0.609375 1.394531 0.519531 1.4375 0.40625 C 1.488281 0.300781 1.535156 0.164062 1.578125 0 L 0.046875 -3.890625 L 1.078125 -3.890625 L 2.125 -0.859375 L 3.0625 -3.890625 L 4 -3.890625 L 2.359375 0.78125 C 2.265625 1.050781 2.101562 1.269531 1.875 1.4375 C 1.65625 1.613281 1.375 1.703125 1.03125 1.703125 C 0.957031 1.703125 0.878906 1.695312 0.796875 1.6875 C 0.710938 1.675781 0.625 1.65625 0.53125 1.625 Z M 0.53125 0.765625 "/></g><g transform="translate(403.087432, 50.702004)"><path style="stroke:none;" d="M 0.453125 -5.421875 L 1.4375 -5.421875 L 1.4375 -1.25 C 1.4375 -1.101562 1.472656 -0.988281 1.546875 -0.90625 C 1.617188 -0.832031 1.71875 -0.796875 1.84375 -0.796875 C 1.90625 -0.796875 1.972656 -0.804688 2.046875 -0.828125 C 2.117188 -0.847656 2.1875 -0.875 2.25 -0.90625 L 2.375 -0.140625 C 2.238281 -0.078125 2.082031 -0.03125 1.90625 0 C 1.726562 0.0390625 1.566406 0.0625 1.421875 0.0625 C 1.109375 0.0625 0.867188 -0.0195312 0.703125 -0.1875 C 0.535156 -0.351562 0.453125 -0.59375 0.453125 -0.90625 Z M 0.453125 -5.421875 "/></g></g><g style="fill:rgb(100%,100%,100%);fill-opacity:1;"><g transform="translate(405.447449, 50.702004)"><path style="stroke:none;" d="M 2.265625 0.078125 C 1.953125 0.078125 1.664062 0.0234375 1.40625 -0.078125 C 1.15625 -0.191406 0.941406 -0.335938 0.765625 -0.515625 C 0.585938 -0.703125 0.445312 -0.914062 0.34375 -1.15625 C 0.25 -1.40625 0.203125 -1.660156 0.203125 -1.921875 C 0.203125 -2.203125 0.25 -2.460938 0.34375 -2.703125 C 0.4375 -2.953125 0.570312 -3.171875 0.75 -3.359375 C 0.9375 -3.546875 1.15625 -3.691406 1.40625 -3.796875 C 1.664062 -3.910156 1.953125 -3.96875 2.265625 -3.96875 C 2.585938 -3.96875 2.875 -3.910156 3.125 -3.796875 C 3.375 -3.691406 3.585938 -3.546875 3.765625 -3.359375 C 3.941406 -3.179688 4.070312 -2.96875 4.15625 -2.71875 C 4.25 -2.476562 4.296875 -2.226562 4.296875 -1.96875 C 4.296875 -1.894531 4.296875 -1.828125 4.296875 -1.765625 C 4.296875 -1.710938 4.289062 -1.664062 4.28125 -1.625 L 1.265625 -1.625 C 1.273438 -1.46875 1.3125 -1.332031 1.375 -1.21875 C 1.4375 -1.101562 1.515625 -1 1.609375 -0.90625 C 1.703125 -0.820312 1.804688 -0.757812 1.921875 -0.71875 C 2.046875 -0.675781 2.171875 -0.65625 2.296875 -0.65625 C 2.492188 -0.65625 2.679688 -0.703125 2.859375 -0.796875 C 3.035156 -0.890625 3.15625 -1.019531 3.21875 -1.1875 L 4.078125 -0.9375 C 3.929688 -0.644531 3.703125 -0.398438 3.390625 -0.203125 C 3.078125 -0.015625 2.703125 0.078125 2.265625 0.078125 Z M 3.265625 -2.28125 C 3.242188 -2.570312 3.132812 -2.804688 2.9375 -2.984375 C 2.75 -3.160156 2.519531 -3.25 2.25 -3.25 C 2.113281 -3.25 1.988281 -3.222656 1.875 -3.171875 C 1.757812 -3.117188 1.65625 -3.050781 1.5625 -2.96875 C 1.476562 -2.882812 1.40625 -2.78125 1.34375 -2.65625 C 1.289062 -2.539062 1.257812 -2.414062 1.25 -2.28125 Z M 3.265625 -2.28125 "/></g></g><g style="fill:rgb(100%,100%,100%);fill-opacity:1;"><g transform="translate(409.899047, 50.702004)"><path style="stroke:none;" d=""/></g></g><g style="fill:rgb(100%,100%,100%);fill-opacity:1;"><g transform="translate(411.678832, 50.702004)"><path style="stroke:none;" d="M 1.515625 0.078125 C 1.328125 0.078125 1.148438 0.046875 0.984375 -0.015625 C 0.828125 -0.078125 0.6875 -0.164062 0.5625 -0.28125 C 0.445312 -0.394531 0.351562 -0.523438 0.28125 -0.671875 C 0.21875 -0.816406 0.1875 -0.976562 0.1875 -1.15625 C 0.1875 -1.34375 0.226562 -1.515625 0.3125 -1.671875 C 0.394531 -1.828125 0.507812 -1.957031 0.65625 -2.0625 C 0.800781 -2.175781 0.972656 -2.265625 1.171875 -2.328125 C 1.378906 -2.390625 1.601562 -2.421875 1.84375 -2.421875 C 2.019531 -2.421875 2.191406 -2.40625 2.359375 -2.375 C 2.523438 -2.34375 2.671875 -2.300781 2.796875 -2.25 L 2.796875 -2.46875 C 2.796875 -2.726562 2.722656 -2.925781 2.578125 -3.0625 C 2.429688 -3.195312 2.210938 -3.265625 1.921875 -3.265625 C 1.710938 -3.265625 1.507812 -3.226562 1.3125 -3.15625 C 1.113281 -3.082031 0.910156 -2.972656 0.703125 -2.828125 L 0.40625 -3.46875 C 0.90625 -3.800781 1.441406 -3.96875 2.015625 -3.96875 C 2.578125 -3.96875 3.015625 -3.828125 3.328125 -3.546875 C 3.640625 -3.273438 3.796875 -2.878906 3.796875 -2.359375 L 3.796875 -1.140625 C 3.796875 -1.035156 3.8125 -0.960938 3.84375 -0.921875 C 3.882812 -0.878906 3.945312 -0.851562 4.03125 -0.84375 L 4.03125 0 C 3.863281 0.03125 3.71875 0.046875 3.59375 0.046875 C 3.40625 0.046875 3.257812 0.00390625 3.15625 -0.078125 C 3.050781 -0.160156 2.988281 -0.269531 2.96875 -0.40625 L 2.9375 -0.625 C 2.769531 -0.394531 2.5625 -0.21875 2.3125 -0.09375 C 2.0625 0.0195312 1.796875 0.078125 1.515625 0.078125 Z M 1.796875 -0.65625 C 1.960938 -0.65625 2.117188 -0.679688 2.265625 -0.734375 C 2.421875 -0.796875 2.546875 -0.878906 2.640625 -0.984375 C 2.742188 -1.066406 2.796875 -1.160156 2.796875 -1.265625 L 2.796875 -1.703125 C 2.679688 -1.753906 2.550781 -1.789062 2.40625 -1.8125 C 2.269531 -1.84375 2.140625 -1.859375 2.015625 -1.859375 C 1.753906 -1.859375 1.539062 -1.800781 1.375 -1.6875 C 1.207031 -1.570312 1.125 -1.421875 1.125 -1.234375 C 1.125 -1.066406 1.1875 -0.925781 1.3125 -0.8125 C 1.445312 -0.707031 1.609375 -0.65625 1.796875 -0.65625 Z M 1.796875 -0.65625 "/></g></g><g style="fill:rgb(100%,100%,100%);fill-opacity:1;"><g transform="translate(415.95217, 50.702004)"><path style="stroke:none;" d="M 4.078125 0 L 3.078125 0 L 3.078125 -2.1875 C 3.078125 -2.5 3.019531 -2.726562 2.90625 -2.875 C 2.800781 -3.019531 2.65625 -3.09375 2.46875 -3.09375 C 2.363281 -3.09375 2.257812 -3.070312 2.15625 -3.03125 C 2.050781 -2.988281 1.953125 -2.929688 1.859375 -2.859375 C 1.765625 -2.785156 1.679688 -2.695312 1.609375 -2.59375 C 1.535156 -2.5 1.484375 -2.394531 1.453125 -2.28125 L 1.453125 0 L 0.453125 0 L 0.453125 -3.890625 L 1.359375 -3.890625 L 1.359375 -3.171875 C 1.492188 -3.421875 1.695312 -3.613281 1.96875 -3.75 C 2.25 -3.894531 2.5625 -3.96875 2.90625 -3.96875 C 3.144531 -3.96875 3.335938 -3.921875 3.484375 -3.828125 C 3.640625 -3.742188 3.757812 -3.628906 3.84375 -3.484375 C 3.9375 -3.335938 4 -3.171875 4.03125 -2.984375 C 4.0625 -2.804688 4.078125 -2.625 4.078125 -2.4375 Z M 4.078125 0 "/></g></g><g style="fill:rgb(100%,100%,100%);fill-opacity:1;"><g transform="translate(420.448856, 50.702004)"><path style="stroke:none;" d="M 2.0625 0.078125 C 1.800781 0.078125 1.554688 0.0234375 1.328125 -0.078125 C 1.097656 -0.179688 0.898438 -0.320312 0.734375 -0.5 C 0.566406 -0.6875 0.4375 -0.90625 0.34375 -1.15625 C 0.257812 -1.40625 0.21875 -1.671875 0.21875 -1.953125 C 0.21875 -2.234375 0.257812 -2.492188 0.34375 -2.734375 C 0.425781 -2.972656 0.546875 -3.1875 0.703125 -3.375 C 0.859375 -3.5625 1.039062 -3.707031 1.25 -3.8125 C 1.46875 -3.914062 1.703125 -3.96875 1.953125 -3.96875 C 2.242188 -3.96875 2.503906 -3.894531 2.734375 -3.75 C 2.960938 -3.613281 3.140625 -3.4375 3.265625 -3.21875 L 3.265625 -5.421875 L 4.265625 -5.421875 L 4.265625 -1.140625 C 4.265625 -1.035156 4.28125 -0.960938 4.3125 -0.921875 C 4.351562 -0.878906 4.414062 -0.851562 4.5 -0.84375 L 4.5 0 C 4.320312 0.03125 4.179688 0.046875 4.078125 0.046875 C 3.898438 0.046875 3.753906 0.00390625 3.640625 -0.078125 C 3.523438 -0.171875 3.457031 -0.289062 3.4375 -0.4375 L 3.421875 -0.671875 C 3.273438 -0.429688 3.078125 -0.242188 2.828125 -0.109375 C 2.585938 0.015625 2.332031 0.078125 2.0625 0.078125 Z M 2.328125 -0.78125 C 2.421875 -0.78125 2.515625 -0.796875 2.609375 -0.828125 C 2.710938 -0.859375 2.804688 -0.898438 2.890625 -0.953125 C 2.972656 -1.015625 3.046875 -1.082031 3.109375 -1.15625 C 3.179688 -1.238281 3.234375 -1.328125 3.265625 -1.421875 L 3.265625 -2.359375 C 3.234375 -2.460938 3.179688 -2.5625 3.109375 -2.65625 C 3.035156 -2.75 2.953125 -2.828125 2.859375 -2.890625 C 2.765625 -2.960938 2.664062 -3.015625 2.5625 -3.046875 C 2.46875 -3.085938 2.367188 -3.109375 2.265625 -3.109375 C 2.117188 -3.109375 1.984375 -3.078125 1.859375 -3.015625 C 1.734375 -2.953125 1.625 -2.863281 1.53125 -2.75 C 1.4375 -2.644531 1.363281 -2.519531 1.3125 -2.375 C 1.269531 -2.226562 1.25 -2.078125 1.25 -1.921875 C 1.25 -1.765625 1.273438 -1.613281 1.328125 -1.46875 C 1.378906 -1.332031 1.453125 -1.210938 1.546875 -1.109375 C 1.648438 -1.003906 1.765625 -0.921875 1.890625 -0.859375 C 2.023438 -0.804688 2.171875 -0.78125 2.328125 -0.78125 Z M 2.328125 -0.78125 "/></g></g><g style="fill:rgb(100%,100%,100%);fill-opacity:1;"><g transform="translate(425.250784, 50.702004)"><path style="stroke:none;" d=""/></g></g><g style="fill:rgb(100%,100%,100%);fill-opacity:1;"><g transform="translate(427.037544, 50.702004)"><path style="stroke:none;" d="M 2.265625 0.078125 C 1.953125 0.078125 1.664062 0.0234375 1.40625 -0.078125 C 1.15625 -0.191406 0.941406 -0.335938 0.765625 -0.515625 C 0.585938 -0.703125 0.445312 -0.914062 0.34375 -1.15625 C 0.25 -1.40625 0.203125 -1.660156 0.203125 -1.921875 C 0.203125 -2.203125 0.25 -2.460938 0.34375 -2.703125 C 0.4375 -2.953125 0.570312 -3.171875 0.75 -3.359375 C 0.9375 -3.546875 1.15625 -3.691406 1.40625 -3.796875 C 1.664062 -3.910156 1.953125 -3.96875 2.265625 -3.96875 C 2.585938 -3.96875 2.875 -3.910156 3.125 -3.796875 C 3.375 -3.691406 3.585938 -3.546875 3.765625 -3.359375 C 3.941406 -3.179688 4.070312 -2.96875 4.15625 -2.71875 C 4.25 -2.476562 4.296875 -2.226562 4.296875 -1.96875 C 4.296875 -1.894531 4.296875 -1.828125 4.296875 -1.765625 C 4.296875 -1.710938 4.289062 -1.664062 4.28125 -1.625 L 1.265625 -1.625 C 1.273438 -1.46875 1.3125 -1.332031 1.375 -1.21875 C 1.4375 -1.101562 1.515625 -1 1.609375 -0.90625 C 1.703125 -0.820312 1.804688 -0.757812 1.921875 -0.71875 C 2.046875 -0.675781 2.171875 -0.65625 2.296875 -0.65625 C 2.492188 -0.65625 2.679688 -0.703125 2.859375 -0.796875 C 3.035156 -0.890625 3.15625 -1.019531 3.21875 -1.1875 L 4.078125 -0.9375 C 3.929688 -0.644531 3.703125 -0.398438 3.390625 -0.203125 C 3.078125 -0.015625 2.703125 0.078125 2.265625 0.078125 Z M 3.265625 -2.28125 C 3.242188 -2.570312 3.132812 -2.804688 2.9375 -2.984375 C 2.75 -3.160156 2.519531 -3.25 2.25 -3.25 C 2.113281 -3.25 1.988281 -3.222656 1.875 -3.171875 C 1.757812 -3.117188 1.65625 -3.050781 1.5625 -2.96875 C 1.476562 -2.882812 1.40625 -2.78125 1.34375 -2.65625 C 1.289062 -2.539062 1.257812 -2.414062 1.25 -2.28125 Z M 3.265625 -2.28125 "/></g></g><g style="fill:rgb(100%,100%,100%);fill-opacity:1;"><g transform="translate(431.497003, 50.702004)"><path style="stroke:none;" d="M 1.515625 0.078125 C 1.328125 0.078125 1.148438 0.046875 0.984375 -0.015625 C 0.828125 -0.078125 0.6875 -0.164062 0.5625 -0.28125 C 0.445312 -0.394531 0.351562 -0.523438 0.28125 -0.671875 C 0.21875 -0.816406 0.1875 -0.976562 0.1875 -1.15625 C 0.1875 -1.34375 0.226562 -1.515625 0.3125 -1.671875 C 0.394531 -1.828125 0.507812 -1.957031 0.65625 -2.0625 C 0.800781 -2.175781 0.972656 -2.265625 1.171875 -2.328125 C 1.378906 -2.390625 1.601562 -2.421875 1.84375 -2.421875 C 2.019531 -2.421875 2.191406 -2.40625 2.359375 -2.375 C 2.523438 -2.34375 2.671875 -2.300781 2.796875 -2.25 L 2.796875 -2.46875 C 2.796875 -2.726562 2.722656 -2.925781 2.578125 -3.0625 C 2.429688 -3.195312 2.210938 -3.265625 1.921875 -3.265625 C 1.710938 -3.265625 1.507812 -3.226562 1.3125 -3.15625 C 1.113281 -3.082031 0.910156 -2.972656 0.703125 -2.828125 L 0.40625 -3.46875 C 0.90625 -3.800781 1.441406 -3.96875 2.015625 -3.96875 C 2.578125 -3.96875 3.015625 -3.828125 3.328125 -3.546875 C 3.640625 -3.273438 3.796875 -2.878906 3.796875 -2.359375 L 3.796875 -1.140625 C 3.796875 -1.035156 3.8125 -0.960938 3.84375 -0.921875 C 3.882812 -0.878906 3.945312 -0.851562 4.03125 -0.84375 L 4.03125 0 C 3.863281 0.03125 3.71875 0.046875 3.59375 0.046875 C 3.40625 0.046875 3.257812 0.00390625 3.15625 -0.078125 C 3.050781 -0.160156 2.988281 -0.269531 2.96875 -0.40625 L 2.9375 -0.625 C 2.769531 -0.394531 2.5625 -0.21875 2.3125 -0.09375 C 2.0625 0.0195312 1.796875 0.078125 1.515625 0.078125 Z M 1.796875 -0.65625 C 1.960938 -0.65625 2.117188 -0.679688 2.265625 -0.734375 C 2.421875 -0.796875 2.546875 -0.878906 2.640625 -0.984375 C 2.742188 -1.066406 2.796875 -1.160156 2.796875 -1.265625 L 2.796875 -1.703125 C 2.679688 -1.753906 2.550781 -1.789062 2.40625 -1.8125 C 2.269531 -1.84375 2.140625 -1.859375 2.015625 -1.859375 C 1.753906 -1.859375 1.539062 -1.800781 1.375 -1.6875 C 1.207031 -1.570312 1.125 -1.421875 1.125 -1.234375 C 1.125 -1.066406 1.1875 -0.925781 1.3125 -0.8125 C 1.445312 -0.707031 1.609375 -0.65625 1.796875 -0.65625 Z M 1.796875 -0.65625 "/></g></g><g style="fill:rgb(100%,100%,100%);fill-opacity:1;"><g transform="translate(435.770341, 50.702004)"><path style="stroke:none;" d="M 1.921875 0.078125 C 1.597656 0.078125 1.28125 0.0234375 0.96875 -0.078125 C 0.65625 -0.179688 0.382812 -0.332031 0.15625 -0.53125 L 0.53125 -1.15625 C 0.769531 -0.988281 1 -0.859375 1.21875 -0.765625 C 1.445312 -0.679688 1.675781 -0.640625 1.90625 -0.640625 C 2.101562 -0.640625 2.257812 -0.675781 2.375 -0.75 C 2.488281 -0.820312 2.546875 -0.929688 2.546875 -1.078125 C 2.546875 -1.210938 2.476562 -1.3125 2.34375 -1.375 C 2.207031 -1.4375 1.988281 -1.507812 1.6875 -1.59375 C 1.4375 -1.664062 1.222656 -1.734375 1.046875 -1.796875 C 0.867188 -1.859375 0.722656 -1.929688 0.609375 -2.015625 C 0.503906 -2.097656 0.425781 -2.191406 0.375 -2.296875 C 0.320312 -2.410156 0.296875 -2.539062 0.296875 -2.6875 C 0.296875 -2.882812 0.332031 -3.0625 0.40625 -3.21875 C 0.488281 -3.375 0.597656 -3.507812 0.734375 -3.625 C 0.867188 -3.738281 1.03125 -3.820312 1.21875 -3.875 C 1.40625 -3.9375 1.609375 -3.96875 1.828125 -3.96875 C 2.117188 -3.96875 2.390625 -3.925781 2.640625 -3.84375 C 2.898438 -3.757812 3.140625 -3.625 3.359375 -3.4375 L 2.953125 -2.828125 C 2.753906 -2.984375 2.5625 -3.09375 2.375 -3.15625 C 2.1875 -3.226562 2.003906 -3.265625 1.828125 -3.265625 C 1.648438 -3.265625 1.503906 -3.226562 1.390625 -3.15625 C 1.285156 -3.09375 1.234375 -2.984375 1.234375 -2.828125 C 1.234375 -2.753906 1.242188 -2.695312 1.265625 -2.65625 C 1.296875 -2.613281 1.335938 -2.570312 1.390625 -2.53125 C 1.453125 -2.5 1.53125 -2.46875 1.625 -2.4375 C 1.726562 -2.40625 1.851562 -2.367188 2 -2.328125 C 2.257812 -2.265625 2.484375 -2.195312 2.671875 -2.125 C 2.867188 -2.050781 3.023438 -1.96875 3.140625 -1.875 C 3.265625 -1.789062 3.351562 -1.691406 3.40625 -1.578125 C 3.46875 -1.460938 3.5 -1.320312 3.5 -1.15625 C 3.5 -0.78125 3.359375 -0.476562 3.078125 -0.25 C 2.796875 -0.03125 2.410156 0.078125 1.921875 0.078125 Z M 1.921875 0.078125 "/></g></g><g style="fill:rgb(100%,100%,100%);fill-opacity:1;"><g transform="translate(439.470434, 50.702004)"><path style="stroke:none;" d="M 2.265625 0.078125 C 1.953125 0.078125 1.664062 0.0234375 1.40625 -0.078125 C 1.15625 -0.191406 0.941406 -0.335938 0.765625 -0.515625 C 0.585938 -0.703125 0.445312 -0.914062 0.34375 -1.15625 C 0.25 -1.40625 0.203125 -1.660156 0.203125 -1.921875 C 0.203125 -2.203125 0.25 -2.460938 0.34375 -2.703125 C 0.4375 -2.953125 0.570312 -3.171875 0.75 -3.359375 C 0.9375 -3.546875 1.15625 -3.691406 1.40625 -3.796875 C 1.664062 -3.910156 1.953125 -3.96875 2.265625 -3.96875 C 2.585938 -3.96875 2.875 -3.910156 3.125 -3.796875 C 3.375 -3.691406 3.585938 -3.546875 3.765625 -3.359375 C 3.941406 -3.179688 4.070312 -2.96875 4.15625 -2.71875 C 4.25 -2.476562 4.296875 -2.226562 4.296875 -1.96875 C 4.296875 -1.894531 4.296875 -1.828125 4.296875 -1.765625 C 4.296875 -1.710938 4.289062 -1.664062 4.28125 -1.625 L 1.265625 -1.625 C 1.273438 -1.46875 1.3125 -1.332031 1.375 -1.21875 C 1.4375 -1.101562 1.515625 -1 1.609375 -0.90625 C 1.703125 -0.820312 1.804688 -0.757812 1.921875 -0.71875 C 2.046875 -0.675781 2.171875 -0.65625 2.296875 -0.65625 C 2.492188 -0.65625 2.679688 -0.703125 2.859375 -0.796875 C 3.035156 -0.890625 3.15625 -1.019531 3.21875 -1.1875 L 4.078125 -0.9375 C 3.929688 -0.644531 3.703125 -0.398438 3.390625 -0.203125 C 3.078125 -0.015625 2.703125 0.078125 2.265625 0.078125 Z M 3.265625 -2.28125 C 3.242188 -2.570312 3.132812 -2.804688 2.9375 -2.984375 C 2.75 -3.160156 2.519531 -3.25 2.25 -3.25 C 2.113281 -3.25 1.988281 -3.222656 1.875 -3.171875 C 1.757812 -3.117188 1.65625 -3.050781 1.5625 -2.96875 C 1.476562 -2.882812 1.40625 -2.78125 1.34375 -2.65625 C 1.289062 -2.539062 1.257812 -2.414062 1.25 -2.28125 Z M 3.265625 -2.28125 "/></g></g><g style="fill:rgb(94.119263%,15.689087%,0%);fill-opacity:1;"><g transform="translate(480.941209, 38.653652)"><path style="stroke:none;" d="M 3.75 -3.953125 C 3.707031 -3.984375 3.640625 -4.03125 3.546875 -4.09375 C 3.453125 -4.15625 3.335938 -4.210938 3.203125 -4.265625 C 3.078125 -4.328125 2.9375 -4.375 2.78125 -4.40625 C 2.625 -4.445312 2.460938 -4.46875 2.296875 -4.46875 C 2.015625 -4.46875 1.800781 -4.414062 1.65625 -4.3125 C 1.519531 -4.207031 1.453125 -4.0625 1.453125 -3.875 C 1.453125 -3.757812 1.476562 -3.664062 1.53125 -3.59375 C 1.582031 -3.519531 1.65625 -3.457031 1.75 -3.40625 C 1.851562 -3.351562 1.984375 -3.300781 2.140625 -3.25 C 2.296875 -3.207031 2.472656 -3.160156 2.671875 -3.109375 C 2.929688 -3.035156 3.164062 -2.957031 3.375 -2.875 C 3.59375 -2.800781 3.773438 -2.703125 3.921875 -2.578125 C 4.078125 -2.460938 4.191406 -2.316406 4.265625 -2.140625 C 4.347656 -1.972656 4.390625 -1.769531 4.390625 -1.53125 C 4.390625 -1.238281 4.332031 -0.988281 4.21875 -0.78125 C 4.113281 -0.582031 3.96875 -0.421875 3.78125 -0.296875 C 3.601562 -0.171875 3.394531 -0.078125 3.15625 -0.015625 C 2.914062 0.0351562 2.664062 0.0625 2.40625 0.0625 C 2.007812 0.0625 1.613281 0.00390625 1.21875 -0.109375 C 0.820312 -0.234375 0.472656 -0.40625 0.171875 -0.625 L 0.625 -1.53125 C 0.664062 -1.488281 0.742188 -1.429688 0.859375 -1.359375 C 0.984375 -1.285156 1.125 -1.210938 1.28125 -1.140625 C 1.445312 -1.066406 1.625 -1.003906 1.8125 -0.953125 C 2.007812 -0.898438 2.210938 -0.875 2.421875 -0.875 C 2.992188 -0.875 3.28125 -1.054688 3.28125 -1.421875 C 3.28125 -1.535156 3.25 -1.632812 3.1875 -1.71875 C 3.125 -1.800781 3.03125 -1.867188 2.90625 -1.921875 C 2.78125 -1.984375 2.632812 -2.039062 2.46875 -2.09375 C 2.300781 -2.144531 2.109375 -2.203125 1.890625 -2.265625 C 1.640625 -2.328125 1.421875 -2.398438 1.234375 -2.484375 C 1.046875 -2.566406 0.890625 -2.664062 0.765625 -2.78125 C 0.640625 -2.894531 0.546875 -3.023438 0.484375 -3.171875 C 0.421875 -3.316406 0.390625 -3.492188 0.390625 -3.703125 C 0.390625 -3.972656 0.4375 -4.210938 0.53125 -4.421875 C 0.632812 -4.640625 0.773438 -4.816406 0.953125 -4.953125 C 1.128906 -5.097656 1.332031 -5.207031 1.5625 -5.28125 C 1.800781 -5.351562 2.054688 -5.390625 2.328125 -5.390625 C 2.710938 -5.390625 3.0625 -5.328125 3.375 -5.203125 C 3.6875 -5.085938 3.960938 -4.953125 4.203125 -4.796875 Z M 3.75 -3.953125 "/></g></g><g style="fill:rgb(94.119263%,15.689087%,0%);fill-opacity:1;"><g transform="translate(485.517201, 38.653652)"><path style="stroke:none;" d="M 4.265625 -0.90625 L 4.265625 0 L 0.5625 0 L 0.5625 -5.34375 L 4.203125 -5.34375 L 4.203125 -4.4375 L 1.59375 -4.4375 L 1.59375 -3.140625 L 3.84375 -3.140625 L 3.84375 -2.296875 L 1.59375 -2.296875 L 1.59375 -0.90625 Z M 4.265625 -0.90625 "/></g></g><g style="fill:rgb(94.119263%,15.689087%,0%);fill-opacity:1;"><g transform="translate(490.00287, 38.653652)"><path style="stroke:none;" d="M 4.265625 -0.90625 L 4.265625 0 L 0.5625 0 L 0.5625 -5.34375 L 4.203125 -5.34375 L 4.203125 -4.4375 L 1.59375 -4.4375 L 1.59375 -3.140625 L 3.84375 -3.140625 L 3.84375 -2.296875 L 1.59375 -2.296875 L 1.59375 -0.90625 Z M 4.265625 -0.90625 "/></g></g><g style="fill:rgb(94.119263%,15.689087%,0%);fill-opacity:1;"><g transform="translate(494.488539, 38.653652)"><path style="stroke:none;" d=""/></g></g><g style="fill:rgb(94.119263%,15.689087%,0%);fill-opacity:1;"><g transform="translate(496.257217, 38.653652)"><path style="stroke:none;" d="M 0.5625 0 L 0.5625 -5.34375 L 1.59375 -5.34375 L 1.59375 0 Z M 0.5625 0 "/></g></g><g style="fill:rgb(94.119263%,15.689087%,0%);fill-opacity:1;"><g transform="translate(498.372101, 38.653652)"><path style="stroke:none;" d="M 4.5625 -4.4375 L 2.84375 -4.4375 L 2.84375 0 L 1.8125 0 L 1.8125 -4.4375 L 0.109375 -4.4375 L 0.109375 -5.34375 L 4.5625 -5.34375 Z M 4.5625 -4.4375 "/></g></g><g style="fill:rgb(94.119263%,15.689087%,0%);fill-opacity:1;"><g transform="translate(502.993249, 38.653652)"><path style="stroke:none;" d="M 4.265625 -0.90625 L 4.265625 0 L 0.5625 0 L 0.5625 -5.34375 L 4.203125 -5.34375 L 4.203125 -4.4375 L 1.59375 -4.4375 L 1.59375 -3.140625 L 3.84375 -3.140625 L 3.84375 -2.296875 L 1.59375 -2.296875 L 1.59375 -0.90625 Z M 4.265625 -0.90625 "/></g></g><g style="fill:rgb(94.119263%,15.689087%,0%);fill-opacity:1;"><g transform="translate(507.475128, 38.653652)"><path style="stroke:none;" d="M 4.921875 0 L 4.921875 -3.546875 L 3.546875 -0.90625 L 2.96875 -0.90625 L 1.59375 -3.546875 L 1.59375 0 L 0.5625 0 L 0.5625 -5.34375 L 1.671875 -5.34375 L 3.25 -2.296875 L 4.84375 -5.34375 L 5.953125 -5.34375 L 5.953125 0 Z M 4.921875 0 "/></g></g><g style="fill:rgb(94.119263%,15.689087%,0%);fill-opacity:1;"><g transform="translate(513.942844, 38.653652)"><path style="stroke:none;" d="M 3.75 -3.953125 C 3.707031 -3.984375 3.640625 -4.03125 3.546875 -4.09375 C 3.453125 -4.15625 3.335938 -4.210938 3.203125 -4.265625 C 3.078125 -4.328125 2.9375 -4.375 2.78125 -4.40625 C 2.625 -4.445312 2.460938 -4.46875 2.296875 -4.46875 C 2.015625 -4.46875 1.800781 -4.414062 1.65625 -4.3125 C 1.519531 -4.207031 1.453125 -4.0625 1.453125 -3.875 C 1.453125 -3.757812 1.476562 -3.664062 1.53125 -3.59375 C 1.582031 -3.519531 1.65625 -3.457031 1.75 -3.40625 C 1.851562 -3.351562 1.984375 -3.300781 2.140625 -3.25 C 2.296875 -3.207031 2.472656 -3.160156 2.671875 -3.109375 C 2.929688 -3.035156 3.164062 -2.957031 3.375 -2.875 C 3.59375 -2.800781 3.773438 -2.703125 3.921875 -2.578125 C 4.078125 -2.460938 4.191406 -2.316406 4.265625 -2.140625 C 4.347656 -1.972656 4.390625 -1.769531 4.390625 -1.53125 C 4.390625 -1.238281 4.332031 -0.988281 4.21875 -0.78125 C 4.113281 -0.582031 3.96875 -0.421875 3.78125 -0.296875 C 3.601562 -0.171875 3.394531 -0.078125 3.15625 -0.015625 C 2.914062 0.0351562 2.664062 0.0625 2.40625 0.0625 C 2.007812 0.0625 1.613281 0.00390625 1.21875 -0.109375 C 0.820312 -0.234375 0.472656 -0.40625 0.171875 -0.625 L 0.625 -1.53125 C 0.664062 -1.488281 0.742188 -1.429688 0.859375 -1.359375 C 0.984375 -1.285156 1.125 -1.210938 1.28125 -1.140625 C 1.445312 -1.066406 1.625 -1.003906 1.8125 -0.953125 C 2.007812 -0.898438 2.210938 -0.875 2.421875 -0.875 C 2.992188 -0.875 3.28125 -1.054688 3.28125 -1.421875 C 3.28125 -1.535156 3.25 -1.632812 3.1875 -1.71875 C 3.125 -1.800781 3.03125 -1.867188 2.90625 -1.921875 C 2.78125 -1.984375 2.632812 -2.039062 2.46875 -2.09375 C 2.300781 -2.144531 2.109375 -2.203125 1.890625 -2.265625 C 1.640625 -2.328125 1.421875 -2.398438 1.234375 -2.484375 C 1.046875 -2.566406 0.890625 -2.664062 0.765625 -2.78125 C 0.640625 -2.894531 0.546875 -3.023438 0.484375 -3.171875 C 0.421875 -3.316406 0.390625 -3.492188 0.390625 -3.703125 C 0.390625 -3.972656 0.4375 -4.210938 0.53125 -4.421875 C 0.632812 -4.640625 0.773438 -4.816406 0.953125 -4.953125 C 1.128906 -5.097656 1.332031 -5.207031 1.5625 -5.28125 C 1.800781 -5.351562 2.054688 -5.390625 2.328125 -5.390625 C 2.710938 -5.390625 3.0625 -5.328125 3.375 -5.203125 C 3.6875 -5.085938 3.960938 -4.953125 4.203125 -4.796875 Z M 3.75 -3.953125 "/></g></g></g></svg>